<svg width="20" height="18" viewBox="0 0 20 18" fill="none" xmlns="http://www.w3.org/2000/svg">
<path fill-rule="evenodd" clip-rule="evenodd" d="M4.23529 0C6.20877 0 7.86695 1.34976 8.33718 3.17647H16.9412V5.29412H8.33718C7.86695 7.12083 6.20877 8.47059 4.23529 8.47059C1.8962 8.47059 0 6.57438 0 4.23529C0 1.8962 1.8962 0 4.23529 0ZM4.23529 6.35294C5.40484 6.35294 6.35294 5.40484 6.35294 4.23529C6.35294 3.06575 5.40484 2.11765 4.23529 2.11765C3.06575 2.11765 2.11765 3.06575 2.11765 4.23529C2.11765 5.40484 3.06575 6.35294 4.23529 6.35294Z" fill="#757B8F"/>
<path fill-rule="evenodd" clip-rule="evenodd" d="M14.8236 18C12.8501 18 11.1919 16.6502 10.7217 14.8235H2.11768V12.7059H10.7217C11.1919 10.8792 12.8501 9.52942 14.8236 9.52942C17.1626 9.52942 19.0589 11.4257 19.0589 13.7647C19.0589 16.1038 17.1626 18 14.8236 18ZM14.8236 15.8824C15.9931 15.8824 16.9412 14.9343 16.9412 13.7647C16.9412 12.5951 15.9931 11.6471 14.8236 11.6471C13.654 11.6471 12.7059 12.5951 12.7059 13.7647C12.7059 14.9343 13.654 15.8824 14.8236 15.8824Z" fill="#757B8F"/>
</svg>
